<svg width="47" height="35" viewBox="0 0 47 35" fill="none" xmlns="http://www.w3.org/2000/svg">
<g clip-path="url(#clip0_1409_196)">
<path d="M3.45372 35H10.8979V17L0.263367 9V31.8125C0.263367 33.5625 1.70215 35 3.45372 35Z" fill="#4285F4"/>
<path d="M36.3581 35H43.8022C45.5538 35 46.9926 33.5625 46.9926 31.8125V9L36.3581 16.9375" fill="#34A853"/>
<path d="M36.3581 3.18749V17L46.9926 9.06249V4.74999C46.9926 0.812489 42.4886 -1.43751 39.3608 0.937489" fill="#FBBC04"/>
<path d="M10.8979 17V3.1875L23.6593 12.75L36.3581 3.1875V17L23.5967 26.5" fill="#EA4335"/>
<path d="M0.263367 4.75001V9.00001L10.8979 16.9375V3.18751L7.89518 0.937515C4.76739 -1.37499 0.263367 0.875015 0.263367 4.75001Z" fill="#C5221F"/>
</g>
<defs>
<clipPath id="clip0_1409_196">
<rect width="46.6667" height="35" fill="white" transform="translate(0.263367)"/>
</clipPath>
</defs>
</svg>
