<svg width="36" height="35" viewBox="0 0 36 35" fill="none" xmlns="http://www.w3.org/2000/svg">
<g clip-path="url(#clip0_1409_194)">
<path fill-rule="evenodd" clip-rule="evenodd" d="M30.6651 5.0823C27.3936 1.80656 23.0425 0.00166197 18.4064 0C8.85346 0 1.07877 7.77387 1.07545 17.3294C1.07378 20.384 1.87236 23.3656 3.38891 25.9932L0.930023 34.9745L10.1174 32.5646C12.6485 33.9457 15.4988 34.6728 18.399 34.6737H18.4064C27.9578 34.6737 35.7334 26.899 35.7367 17.3435C35.7383 12.7124 33.9375 8.35888 30.6651 5.08313V5.0823ZM18.4064 31.7469H18.4006C15.8162 31.7462 13.281 31.0514 11.0689 29.7393L10.5429 29.4269L5.09077 30.8569L6.54582 25.5411L6.20345 24.996C4.76169 22.7025 3.99968 20.0516 4.00134 17.3302C4.00467 9.38847 10.4664 2.92673 18.4123 2.92673C22.2597 2.92839 25.8762 4.42832 28.596 7.15146C31.3158 9.87377 32.8124 13.4936 32.8108 17.3418C32.8074 25.2844 26.3457 31.7462 18.4064 31.7462V31.7469ZM26.3074 20.9591C25.8745 20.7422 23.7456 19.6951 23.3483 19.5506C22.9511 19.406 22.6628 19.3337 22.3744 19.7675C22.0861 20.2013 21.2559 21.1768 21.0033 21.4652C20.7507 21.7543 20.498 21.7901 20.0651 21.5732C19.6322 21.3563 18.2369 20.8993 16.5825 19.4242C15.2953 18.2758 14.426 16.8582 14.1735 16.4244C13.9208 15.9907 14.1469 15.7563 14.3629 15.5411C14.5573 15.3466 14.7958 15.035 15.0127 14.7824C15.2296 14.5297 15.3011 14.3486 15.4456 14.0602C15.5903 13.7711 15.518 13.5185 15.41 13.3015C15.3019 13.0847 14.4361 10.9532 14.0746 10.0865C13.723 9.24221 13.3658 9.35689 13.1006 9.34277C12.848 9.33029 12.5597 9.32781 12.2705 9.32781C11.9813 9.32781 11.5126 9.43584 11.1154 9.86961C10.7182 10.3033 9.59969 11.3512 9.59969 13.4819C9.59969 15.6125 11.1512 17.6726 11.368 17.9618C11.5849 18.251 14.4218 22.6244 18.7654 24.5008C19.7984 24.947 20.6052 25.2137 21.2343 25.4132C22.2714 25.7431 23.2154 25.6966 23.9616 25.5852C24.7934 25.4606 26.5235 24.5373 26.8842 23.526C27.2448 22.5147 27.2448 21.6471 27.1368 21.4668C27.0288 21.2865 26.7396 21.1776 26.3067 20.9607L26.3074 20.9591Z" fill="#25D366"/>
</g>
<defs>
<clipPath id="clip0_1409_194">
<rect width="34.8066" height="35" fill="white" transform="translate(0.930023)"/>
</clipPath>
</defs>
</svg>
